<mxfile host="app.diagrams.net" modified="2024-03-26T04:31:04.848Z" agent="Mozilla/5.0 (Macintosh; Intel Mac OS X 10_15_7) AppleWebKit/605.1.15 (KHTML, like Gecko) Version/17.4 Safari/605.1.15" etag="85FgFsieYo5JCb7zz_K-" version="24.0.5" type="device">
  <diagram name="Page-1" id="hrw902O539XTYLNtP8d-">
    <mxGraphModel dx="1434" dy="1996" grid="1" gridSize="10" guides="1" tooltips="1" connect="1" arrows="1" fold="1" page="1" pageScale="1" pageWidth="827" pageHeight="1169" math="0" shadow="0">
      <root>
        <mxCell id="0" />
        <mxCell id="1" parent="0" />
        <mxCell id="lFsfy4obLwNb20StSC2V-19" value="" style="rounded=0;whiteSpace=wrap;html=1;fillColor=#f5f5f5;fontColor=#333333;strokeColor=#666666;" vertex="1" parent="1">
          <mxGeometry x="40" y="-40" width="640" height="370" as="geometry" />
        </mxCell>
        <mxCell id="lFsfy4obLwNb20StSC2V-14" value="" style="rounded=0;whiteSpace=wrap;html=1;" vertex="1" parent="1">
          <mxGeometry x="80" y="155" width="560" height="145" as="geometry" />
        </mxCell>
        <mxCell id="lFsfy4obLwNb20StSC2V-2" value="&lt;span style=&quot;font-size: 24px;&quot;&gt;00000000&lt;/span&gt;" style="rounded=0;whiteSpace=wrap;html=1;fillColor=#f8cecc;strokeColor=#b85450;fontStyle=1" vertex="1" parent="1">
          <mxGeometry x="120" y="200" width="120" height="60" as="geometry" />
        </mxCell>
        <mxCell id="lFsfy4obLwNb20StSC2V-3" value="&lt;span style=&quot;font-size: 24px;&quot;&gt;00000000&lt;/span&gt;" style="rounded=0;whiteSpace=wrap;html=1;fillColor=#f8cecc;strokeColor=#b85450;fontStyle=1" vertex="1" parent="1">
          <mxGeometry x="240" y="200" width="120" height="60" as="geometry" />
        </mxCell>
        <mxCell id="lFsfy4obLwNb20StSC2V-4" value="&lt;span style=&quot;font-size: 24px;&quot;&gt;00000000&lt;/span&gt;" style="rounded=0;whiteSpace=wrap;html=1;fillColor=#f8cecc;strokeColor=#b85450;fontStyle=1" vertex="1" parent="1">
          <mxGeometry x="360" y="200" width="120" height="60" as="geometry" />
        </mxCell>
        <mxCell id="lFsfy4obLwNb20StSC2V-5" value="&lt;font style=&quot;font-size: 24px;&quot;&gt;00101000&lt;/font&gt;" style="rounded=0;whiteSpace=wrap;html=1;fillColor=#f8cecc;strokeColor=#b85450;fontStyle=1" vertex="1" parent="1">
          <mxGeometry x="480" y="200" width="120" height="60" as="geometry" />
        </mxCell>
        <mxCell id="lFsfy4obLwNb20StSC2V-8" value="0X00" style="text;html=1;align=center;verticalAlign=middle;whiteSpace=wrap;rounded=0;fontColor=#990000;fontStyle=1" vertex="1" parent="1">
          <mxGeometry x="570" y="270" width="60" height="30" as="geometry" />
        </mxCell>
        <mxCell id="lFsfy4obLwNb20StSC2V-10" value="&lt;font style=&quot;font-size: 15px;&quot;&gt;Byte 1&lt;/font&gt;" style="text;html=1;align=center;verticalAlign=middle;whiteSpace=wrap;rounded=0;" vertex="1" parent="1">
          <mxGeometry x="510" y="170" width="60" height="30" as="geometry" />
        </mxCell>
        <mxCell id="lFsfy4obLwNb20StSC2V-11" value="&lt;font style=&quot;font-size: 15px;&quot;&gt;Byte 2&lt;/font&gt;" style="text;html=1;align=center;verticalAlign=middle;whiteSpace=wrap;rounded=0;" vertex="1" parent="1">
          <mxGeometry x="400" y="170" width="60" height="30" as="geometry" />
        </mxCell>
        <mxCell id="lFsfy4obLwNb20StSC2V-12" value="&lt;font style=&quot;font-size: 15px;&quot;&gt;Byte 3&lt;/font&gt;" style="text;html=1;align=center;verticalAlign=middle;whiteSpace=wrap;rounded=0;" vertex="1" parent="1">
          <mxGeometry x="270" y="170" width="60" height="30" as="geometry" />
        </mxCell>
        <mxCell id="lFsfy4obLwNb20StSC2V-13" value="&lt;font style=&quot;font-size: 15px;&quot;&gt;Byte 4&lt;/font&gt;" style="text;html=1;align=center;verticalAlign=middle;whiteSpace=wrap;rounded=0;" vertex="1" parent="1">
          <mxGeometry x="160" y="170" width="60" height="30" as="geometry" />
        </mxCell>
        <mxCell id="lFsfy4obLwNb20StSC2V-15" value="&lt;font style=&quot;font-size: 17px;&quot;&gt;(10)&lt;sub&gt;10&lt;/sub&gt;&amp;nbsp;&lt;/font&gt;&lt;div&gt;&lt;font style=&quot;font-size: 17px;&quot;&gt;=&amp;nbsp;&lt;/font&gt;&lt;/div&gt;&lt;div&gt;&lt;font style=&quot;font-size: 17px;&quot;&gt;(1010)&lt;sub&gt;2&lt;/sub&gt;&lt;/font&gt;&lt;/div&gt;" style="whiteSpace=wrap;html=1;aspect=fixed;fillColor=#f8cecc;strokeColor=#b85450;fontStyle=1" vertex="1" parent="1">
          <mxGeometry x="320" width="100" height="100" as="geometry" />
        </mxCell>
        <mxCell id="lFsfy4obLwNb20StSC2V-16" value="&lt;font style=&quot;font-size: 15px;&quot;&gt;int&lt;/font&gt;" style="text;html=1;align=center;verticalAlign=middle;resizable=0;points=[];autosize=1;strokeColor=none;fillColor=none;fontSize=15;" vertex="1" parent="1">
          <mxGeometry x="280" y="28" width="40" height="30" as="geometry" />
        </mxCell>
        <mxCell id="lFsfy4obLwNb20StSC2V-17" value="0X00" style="text;html=1;align=center;verticalAlign=middle;resizable=0;points=[];autosize=1;strokeColor=none;fillColor=none;fontColor=#990000;fontStyle=1" vertex="1" parent="1">
          <mxGeometry x="345" y="100" width="50" height="30" as="geometry" />
        </mxCell>
        <mxCell id="lFsfy4obLwNb20StSC2V-18" value="x" style="text;html=1;align=center;verticalAlign=middle;resizable=0;points=[];autosize=1;strokeColor=none;fillColor=none;fontSize=15;" vertex="1" parent="1">
          <mxGeometry x="355" y="-30" width="30" height="30" as="geometry" />
        </mxCell>
        <mxCell id="lFsfy4obLwNb20StSC2V-21" value="0X01" style="text;html=1;align=center;verticalAlign=middle;whiteSpace=wrap;rounded=0;fontColor=#990000;fontStyle=1" vertex="1" parent="1">
          <mxGeometry x="450" y="270" width="60" height="30" as="geometry" />
        </mxCell>
        <mxCell id="lFsfy4obLwNb20StSC2V-22" value="0X02" style="text;html=1;align=center;verticalAlign=middle;whiteSpace=wrap;rounded=0;fontColor=#990000;fontStyle=1" vertex="1" parent="1">
          <mxGeometry x="330" y="270" width="60" height="30" as="geometry" />
        </mxCell>
        <mxCell id="lFsfy4obLwNb20StSC2V-23" value="0X03" style="text;html=1;align=center;verticalAlign=middle;whiteSpace=wrap;rounded=0;fontColor=#990000;fontStyle=1" vertex="1" parent="1">
          <mxGeometry x="210" y="270" width="60" height="30" as="geometry" />
        </mxCell>
      </root>
    </mxGraphModel>
  </diagram>
</mxfile>
